<svg xmlns="http://www.w3.org/2000/svg" xmlns:xlink="http://www.w3.org/1999/xlink" width="1920" height="6578" viewBox="0 0 1920 6578"><defs><clipPath id="a"><rect x="-20" width="277.015" height="616.303" fill="none"/></clipPath><clipPath id="b"><rect x="28" width="495.015" height="616.303" fill="none"/></clipPath><clipPath id="c"><rect x="283" width="249.015" height="616.303" fill="none"/></clipPath><clipPath id="d"><rect x="-24" width="285.015" height="616.303" fill="none"/></clipPath><clipPath id="e"><rect x="310" width="240.015" height="616.303" fill="none"/></clipPath><clipPath id="g"><rect width="1920" height="6578"/></clipPath></defs><g id="f" clip-path="url(#g)"><rect width="1920" height="6578" fill="#fff"/><path d="M255.791.548c-5.893.664-12.9,3.98-30.581,14.593C188.9,37.03,126.941,74.011,77.248,103.859,14.335,141.337,11.15,143.492,5.1,152.447l-5.1,7.8V455.416l5.1,7.793c5.893,8.79,10.512,11.941,57.02,39.468,14.174,8.291,63.39,37.975,86.8,52.236,4.778,2.984,20.546,12.438,35.04,21.06s34.085,20.4,43.64,26.2,20.227,11.444,23.892,12.6c7.646,2.652,16.565,1.823,24.686-2.322,5.1-2.652,37.589-22.054,86.167-51.407,8.281-4.974,19.112-11.609,23.89-14.428,4.78-2.984,20.546-12.436,35.042-21.06,81.068-48.587,86.961-52.236,92.376-58.7,8.919-10.612,8.6-7.129,9.238-154.053.319-118.567.158-137.473-2.07-147.753-3.5-16.583-7.008-19.734-47.782-43.781-8.761-5.306-20.546-12.271-26.281-15.754S429.238,94.9,420.479,89.765,395.95,75.17,385.438,68.7C284.679,7.67,272.451,0,262.274,0,260.257,0,258.32.3,255.791.548Z" transform="translate(1904.166 4812.787) rotate(180)" fill="#d9eeff" opacity="0.3"/><path d="M255.791.548c-5.893.664-12.9,3.98-30.581,14.593C188.9,37.03,126.941,74.011,77.248,103.859,14.335,141.337,11.15,143.492,5.1,152.447l-5.1,7.8V455.416l5.1,7.793c5.893,8.79,10.512,11.941,57.02,39.468,14.174,8.291,63.39,37.975,86.8,52.236,4.778,2.984,20.546,12.438,35.04,21.06s34.085,20.4,43.64,26.2,20.227,11.444,23.892,12.6c7.646,2.652,16.565,1.823,24.686-2.322,5.1-2.652,37.589-22.054,86.167-51.407,8.281-4.974,19.112-11.609,23.89-14.428,4.78-2.984,20.546-12.436,35.042-21.06,81.068-48.587,86.961-52.236,92.376-58.7,8.919-10.612,8.6-7.129,9.238-154.053.319-118.567.158-137.473-2.07-147.753-3.5-16.583-7.008-19.734-47.782-43.781-8.761-5.306-20.546-12.271-26.281-15.754S429.238,94.9,420.479,89.765,395.95,75.17,385.438,68.7C284.679,7.67,272.451,0,262.274,0,260.257,0,258.32.3,255.791.548Z" transform="translate(1609.651 4304.984) rotate(180)" fill="#d9eeff" opacity="0.2"/><g transform="translate(1663.151 3688.682)" clip-path="url(#a)" style="isolation:isolate"><path d="M255.791.548c-5.893.664-12.9,3.98-30.581,14.593C188.9,37.03,126.941,74.011,77.248,103.859,14.335,141.337,11.15,143.492,5.1,152.447l-5.1,7.8V455.416l5.1,7.793c5.893,8.79,10.512,11.941,57.02,39.468,14.174,8.291,63.39,37.975,86.8,52.236,4.778,2.984,20.546,12.438,35.04,21.06s34.085,20.4,43.64,26.2,20.227,11.444,23.892,12.6c7.646,2.652,16.565,1.823,24.686-2.322,5.1-2.652,37.589-22.054,86.167-51.407,8.281-4.974,19.112-11.609,23.89-14.428,4.78-2.984,20.546-12.436,35.042-21.06,81.068-48.587,86.961-52.236,92.376-58.7,8.919-10.612,8.6-7.129,9.238-154.053.319-118.567.158-137.473-2.07-147.753-3.5-16.583-7.008-19.734-47.782-43.781-8.761-5.306-20.546-12.271-26.281-15.754S429.238,94.9,420.479,89.765,395.95,75.17,385.438,68.7C284.679,7.67,272.451,0,262.274,0,260.257,0,258.32.3,255.791.548Z" transform="translate(523.015 616.303) rotate(180)" fill="#d9eeff" opacity="0.5"/></g><path d="M255.791.548c-5.893.664-12.9,3.98-30.581,14.593C188.9,37.03,126.941,74.011,77.248,103.859,14.335,141.337,11.15,143.492,5.1,152.447l-5.1,7.8V455.416l5.1,7.793c5.893,8.79,10.512,11.941,57.02,39.468,14.174,8.291,63.39,37.975,86.8,52.236,4.778,2.984,20.546,12.438,35.04,21.06s34.085,20.4,43.64,26.2,20.227,11.444,23.892,12.6c7.646,2.652,16.565,1.823,24.686-2.322,5.1-2.652,37.589-22.054,86.167-51.407,8.281-4.974,19.112-11.609,23.89-14.428,4.78-2.984,20.546-12.436,35.042-21.06,81.068-48.587,86.961-52.236,92.376-58.7,8.919-10.612,8.6-7.129,9.238-154.053.319-118.567.158-137.473-2.07-147.753-3.5-16.583-7.008-19.734-47.782-43.781-8.761-5.306-20.546-12.271-26.281-15.754S429.238,94.9,420.479,89.765,395.95,75.17,385.438,68.7C284.679,7.67,272.451,0,262.274,0,260.257,0,258.32.3,255.791.548Z" transform="translate(763.328 4804.269) rotate(180)" fill="#d9eeff" opacity="0.35"/><path d="M255.791.548c-5.893.664-12.9,3.98-30.581,14.593C188.9,37.03,126.941,74.011,77.248,103.859,14.335,141.337,11.15,143.492,5.1,152.447l-5.1,7.8V455.416l5.1,7.793c5.893,8.79,10.512,11.941,57.02,39.468,14.174,8.291,63.39,37.975,86.8,52.236,4.778,2.984,20.546,12.438,35.04,21.06s34.085,20.4,43.64,26.2,20.227,11.444,23.892,12.6c7.646,2.652,16.565,1.823,24.686-2.322,5.1-2.652,37.589-22.054,86.167-51.407,8.281-4.974,19.112-11.609,23.89-14.428,4.78-2.984,20.546-12.436,35.042-21.06,81.068-48.587,86.961-52.236,92.376-58.7,8.919-10.612,8.6-7.129,9.238-154.053.319-118.567.158-137.473-2.07-147.753-3.5-16.583-7.008-19.734-47.782-43.781-8.761-5.306-20.546-12.271-26.281-15.754S429.238,94.9,420.479,89.765,395.95,75.17,385.438,68.7C284.679,7.67,272.451,0,262.274,0,260.257,0,258.32.3,255.791.548Z" transform="translate(1326.838 4812.787) rotate(180)" fill="#d9eeff" opacity="0.5"/><g transform="translate(-27.516 1880.484)" clip-path="url(#b)" style="isolation:isolate"><path d="M255.791,1831.755c-5.893-.664-12.9-3.98-30.581-14.593-36.313-21.889-98.269-58.87-147.962-88.718-62.913-37.478-66.1-39.633-72.151-48.588l-5.1-7.8V1376.887l5.1-7.793c5.893-8.79,10.512-11.941,57.02-39.468,14.174-8.291,63.39-37.975,86.8-52.236,4.778-2.984,20.546-12.438,35.04-21.06s34.085-20.4,43.64-26.2,20.227-11.444,23.892-12.6c7.646-2.652,16.565-1.823,24.686,2.322,5.1,2.652,37.589,22.054,86.167,51.407,8.281,4.974,19.112,11.609,23.89,14.428,4.78,2.984,20.546,12.436,35.042,21.06,81.068,48.587,86.961,52.236,92.376,58.7,8.919,10.612,8.6,7.129,9.238,154.053.319,118.567.158,137.473-2.07,147.753-3.5,16.583-7.008,19.734-47.782,43.781-8.761,5.306-20.546,12.271-26.281,15.754s-17.52,10.613-26.279,15.751-24.53,14.6-35.042,21.063c-100.758,61.033-112.986,68.7-123.163,68.7C260.257,1832.3,258.32,1832,255.791,1831.755Z" transform="translate(0 -1216)" fill="#d9eeff" opacity="0.3"/></g><path d="M255.791,1831.755c-5.893-.664-12.9-3.98-30.581-14.593-36.313-21.889-98.269-58.87-147.962-88.718-62.913-37.478-66.1-39.633-72.151-48.588l-5.1-7.8V1376.887l5.1-7.793c5.893-8.79,10.512-11.941,57.02-39.468,14.174-8.291,63.39-37.975,86.8-52.236,4.778-2.984,20.546-12.438,35.04-21.06s34.085-20.4,43.64-26.2,20.227-11.444,23.892-12.6c7.646-2.652,16.565-1.823,24.686,2.322,5.1,2.652,37.589,22.054,86.167,51.407,8.281,4.974,19.112,11.609,23.89,14.428,4.78,2.984,20.546,12.436,35.042,21.06,81.068,48.587,86.961,52.236,92.376,58.7,8.919,10.612,8.6,7.129,9.238,154.053.319,118.567.158,137.473-2.07,147.753-3.5,16.583-7.008,19.734-47.782,43.781-8.761,5.306-20.546,12.271-26.281,15.754s-17.52,10.613-26.279,15.751-24.53,14.6-35.042,21.063c-100.758,61.033-112.986,68.7-123.163,68.7C260.257,1832.3,258.32,1832,255.791,1831.755Z" transform="translate(267 156.681)" fill="#d9eeff" opacity="0.2"/><g transform="translate(-283.203 2403.697)" clip-path="url(#c)" style="isolation:isolate"><path d="M255.791,1831.755c-5.893-.664-12.9-3.98-30.581-14.593-36.313-21.889-98.269-58.87-147.962-88.718-62.913-37.478-66.1-39.633-72.151-48.588l-5.1-7.8V1376.887l5.1-7.793c5.893-8.79,10.512-11.941,57.02-39.468,14.174-8.291,63.39-37.975,86.8-52.236,4.778-2.984,20.546-12.438,35.04-21.06s34.085-20.4,43.64-26.2,20.227-11.444,23.892-12.6c7.646-2.652,16.565-1.823,24.686,2.322,5.1,2.652,37.589,22.054,86.167,51.407,8.281,4.974,19.112,11.609,23.89,14.428,4.78,2.984,20.546,12.436,35.042,21.06,81.068,48.587,86.961,52.236,92.376,58.7,8.919,10.612,8.6,7.129,9.238,154.053.319,118.567.158,137.473-2.07,147.753-3.5,16.583-7.008,19.734-47.782,43.781-8.761,5.306-20.546,12.271-26.281,15.754s-17.52,10.613-26.279,15.751-24.53,14.6-35.042,21.063c-100.758,61.033-112.986,68.7-123.163,68.7C260.257,1832.3,258.32,1832,255.791,1831.755Z" transform="translate(0 -1216)" fill="#d9eeff" opacity="0.75"/></g><g transform="translate(1658.992 4725.697)" clip-path="url(#d)" style="isolation:isolate"><path d="M255.791,1831.755c-5.893-.664-12.9-3.98-30.581-14.593-36.313-21.889-98.269-58.87-147.962-88.718-62.913-37.478-66.1-39.633-72.151-48.588l-5.1-7.8V1376.887l5.1-7.793c5.893-8.79,10.512-11.941,57.02-39.468,14.174-8.291,63.39-37.975,86.8-52.236,4.778-2.984,20.546-12.438,35.04-21.06s34.085-20.4,43.64-26.2,20.227-11.444,23.892-12.6c7.646-2.652,16.565-1.823,24.686,2.322,5.1,2.652,37.589,22.054,86.167,51.407,8.281,4.974,19.112,11.609,23.89,14.428,4.78,2.984,20.546,12.436,35.042,21.06,81.068,48.587,86.961,52.236,92.376,58.7,8.919,10.612,8.6,7.129,9.238,154.053.319,118.567.158,137.473-2.07,147.753-3.5,16.583-7.008,19.734-47.782,43.781-8.761,5.306-20.546,12.271-26.281,15.754s-17.52,10.613-26.279,15.751-24.53,14.6-35.042,21.063c-100.758,61.033-112.986,68.7-123.163,68.7C260.257,1832.3,258.32,1832,255.791,1831.755Z" transform="translate(0 -1216)" fill="#d9eeff" opacity="0.75"/></g><g transform="translate(-309.516 1372.681)" clip-path="url(#e)" style="isolation:isolate"><path d="M255.791,1831.755c-5.893-.664-12.9-3.98-30.581-14.593-36.313-21.889-98.269-58.87-147.962-88.718-62.913-37.478-66.1-39.633-72.151-48.588l-5.1-7.8V1376.887l5.1-7.793c5.893-8.79,10.512-11.941,57.02-39.468,14.174-8.291,63.39-37.975,86.8-52.236,4.778-2.984,20.546-12.438,35.04-21.06s34.085-20.4,43.64-26.2,20.227-11.444,23.892-12.6c7.646-2.652,16.565-1.823,24.686,2.322,5.1,2.652,37.589,22.054,86.167,51.407,8.281,4.974,19.112,11.609,23.89,14.428,4.78,2.984,20.546,12.436,35.042,21.06,81.068,48.587,86.961,52.236,92.376,58.7,8.919,10.612,8.6,7.129,9.238,154.053.319,118.567.158,137.473-2.07,147.753-3.5,16.583-7.008,19.734-47.782,43.781-8.761,5.306-20.546,12.271-26.281,15.754s-17.52,10.613-26.279,15.751-24.53,14.6-35.042,21.063c-100.758,61.033-112.986,68.7-123.163,68.7C260.257,1832.3,258.32,1832,255.791,1831.755Z" transform="translate(0 -1216)" fill="#d9eeff" opacity="0.5"/></g><path d="M255.791,1831.755c-5.893-.664-12.9-3.98-30.581-14.593-36.313-21.889-98.269-58.87-147.962-88.718-62.913-37.478-66.1-39.633-72.151-48.588l-5.1-7.8V1376.887l5.1-7.793c5.893-8.79,10.512-11.941,57.02-39.468,14.174-8.291,63.39-37.975,86.8-52.236,4.778-2.984,20.546-12.438,35.04-21.06s34.085-20.4,43.64-26.2,20.227-11.444,23.892-12.6c7.646-2.652,16.565-1.823,24.686,2.322,5.1,2.652,37.589,22.054,86.167,51.407,8.281,4.974,19.112,11.609,23.89,14.428,4.78,2.984,20.546,12.436,35.042,21.06,81.068,48.587,86.961,52.236,92.376,58.7,8.919,10.612,8.6,7.129,9.238,154.053.319,118.567.158,137.473-2.07,147.753-3.5,16.583-7.008,19.734-47.782,43.781-8.761,5.306-20.546,12.271-26.281,15.754s-17.52,10.613-26.279,15.751-24.53,14.6-35.042,21.063c-100.758,61.033-112.986,68.7-123.163,68.7C260.257,1832.3,258.32,1832,255.791,1831.755Z" transform="translate(1088.492 3495)" fill="#d9eeff" opacity="0.5"/><path d="M255.791,1831.755c-5.893-.664-12.9-3.98-30.581-14.593-36.313-21.889-98.269-58.87-147.962-88.718-62.913-37.478-66.1-39.633-72.151-48.588l-5.1-7.8V1376.887l5.1-7.793c5.893-8.79,10.512-11.941,57.02-39.468,14.174-8.291,63.39-37.975,86.8-52.236,4.778-2.984,20.546-12.438,35.04-21.06s34.085-20.4,43.64-26.2,20.227-11.444,23.892-12.6c7.646-2.652,16.565-1.823,24.686,2.322,5.1,2.652,37.589,22.054,86.167,51.407,8.281,4.974,19.112,11.609,23.89,14.428,4.78,2.984,20.546,12.436,35.042,21.06,81.068,48.587,86.961,52.236,92.376,58.7,8.919,10.612,8.6,7.129,9.238,154.053.319,118.567.158,137.473-2.07,147.753-3.5,16.583-7.008,19.734-47.782,43.781-8.761,5.306-20.546,12.271-26.281,15.754s-17.52,10.613-26.279,15.751-24.53,14.6-35.042,21.063c-100.758,61.033-112.986,68.7-123.163,68.7C260.257,1832.3,258.32,1832,255.791,1831.755Z" transform="translate(1129.659 655.966)" fill="#d9eeff" opacity="0.35"/><path d="M255.791,1831.755c-5.893-.664-12.9-3.98-30.581-14.593-36.313-21.889-98.269-58.87-147.962-88.718-62.913-37.478-66.1-39.633-72.151-48.588l-5.1-7.8V1376.887l5.1-7.793c5.893-8.79,10.512-11.941,57.02-39.468,14.174-8.291,63.39-37.975,86.8-52.236,4.778-2.984,20.546-12.438,35.04-21.06s34.085-20.4,43.64-26.2,20.227-11.444,23.892-12.6c7.646-2.652,16.565-1.823,24.686,2.322,5.1,2.652,37.589,22.054,86.167,51.407,8.281,4.974,19.112,11.609,23.89,14.428,4.78,2.984,20.546,12.436,35.042,21.06,81.068,48.587,86.961,52.236,92.376,58.7,8.919,10.612,8.6,7.129,9.238,154.053.319,118.567.158,137.473-2.07,147.753-3.5,16.583-7.008,19.734-47.782,43.781-8.761,5.306-20.546,12.271-26.281,15.754s-17.52,10.613-26.279,15.751-24.53,14.6-35.042,21.063c-100.758,61.033-112.986,68.7-123.163,68.7C260.257,1832.3,258.32,1832,255.791,1831.755Z" transform="translate(549.812 664.484)" fill="#d9eeff" opacity="0.5"/><path d="M255.791,1831.755c-5.893-.664-12.9-3.98-30.581-14.593-36.313-21.889-98.269-58.87-147.962-88.718-62.913-37.478-66.1-39.633-72.151-48.588l-5.1-7.8V1376.887l5.1-7.793c5.893-8.79,10.512-11.941,57.02-39.468,14.174-8.291,63.39-37.975,86.8-52.236,4.778-2.984,20.546-12.438,35.04-21.06s34.085-20.4,43.64-26.2,20.227-11.444,23.892-12.6c7.646-2.652,16.565-1.823,24.686,2.322,5.1,2.652,37.589,22.054,86.167,51.407,8.281,4.974,19.112,11.609,23.89,14.428,4.78,2.984,20.546,12.436,35.042,21.06,81.068,48.587,86.961,52.236,92.376,58.7,8.919,10.612,8.6,7.129,9.238,154.053.319,118.567.158,137.473-2.07,147.753-3.5,16.583-7.008,19.734-47.782,43.781-8.761,5.306-20.546,12.271-26.281,15.754s-17.52,10.613-26.279,15.751-24.53,14.6-35.042,21.063c-100.758,61.033-112.986,68.7-123.163,68.7C260.257,1832.3,258.32,1832,255.791,1831.755Z" transform="translate(-21.695 -348.819)" fill="#d9eeff" opacity="0.1"/></g></svg>