<svg xmlns="http://www.w3.org/2000/svg" width="450.088" height="157.861" viewBox="0 0 450.088 157.861">
    <g id="Logo-Test" transform="translate(-61.311 -41.569)">

        <text id="Bengtson" transform="translate(210.398 129.799)" class="svgcolor" fill="#fff" font-size="55"
              font-family="Poppins-Bold, Poppins" font-weight="700">
            <tspan x="0" y="0">BENGTSON</tspan>
        </text>
        <text id="Multiservice" transform="translate(213.006 155.201)" class="svgcolor" fill="#fff" font-size="24"
              font-family="Poppins-Bold, Poppins" font-weight="700">
            <tspan x="0" y="0">MULTISERVICE</tspan>
        </text>

        <g id="Group_18" data-name="Group 18" transform="translate(61.311 41.569)">
            <path id="Path_12" data-name="Path 12"
                  d="M68.569-387.129A46.568,46.568,0,0,0,62.2-383.9c-2.549,1.487-7.773,4.5-11.638,6.711s-8.07,4.63-9.345,5.394c-6.244,3.653-19.369,11.256-23.149,13.38-12.4,7.051-13.635,7.858-15.206,10.109l-1.359,2V-270.7l1.359,2c1.614,2.294,2.464,2.846,19.241,12.445,13.252,7.646,29.775,17.118,39.46,22.724,4.715,2.718,6.584,3.568,8.155,3.738,4.078.382,2.379,1.274,34.575-17.458,2.8-1.657,7.008-4.078,9.345-5.394s5.479-3.143,7.008-4.035,4.672-2.676,7.008-4.035c10.874-6.159,11.808-6.966,12.743-11.214.595-2.634.637-7.476.552-37.846-.17-37.633-.085-36.742-2.464-39.46-1.444-1.656-3.016-2.591-24.636-15.036-3.865-2.209-8.07-4.63-9.345-5.394-1.274-.722-4.163-2.421-6.371-3.7-12.955-7.518-21.62-12.488-22.979-13.167A8.769,8.769,0,0,0,68.569-387.129ZM52.9-345.248c1.189.212,4.12.68,6.584,1.062s5.437.892,6.584,1.062c3.228.595,4.715.807,9.132,1.529,2.209.34,5.012.807,6.159,1.019,1.189.212,3.186.51,4.46.68,2.209.255,2.549.467,5.9,3.738,12.53,12.063,20.856,20.431,20.856,20.856a3.317,3.317,0,0,1-1.019,1.444c-.977.934-1.1.934-3.058.34-1.147-.34-2.421-.765-2.8-.934-.722-.3-.765.765-.85,17.245l-.127,17.585-1.7.467c-.934.255-2.081.595-2.549.765-1.019.382-1.1.425-9.982,3.228-3.865,1.232-7.391,2.379-7.858,2.549a52.294,52.294,0,0,1-8.962,2.549c-.892,0-6.244-1.7-10.364-3.271-2.506-.977-8.962-3.228-10.194-3.568a31.905,31.905,0,0,1-4.248-1.572c-.595-.255-2.591-.935-4.46-1.572-1.869-.595-3.7-1.274-4.035-1.444a9.618,9.618,0,0,0-2.124-.68,13.321,13.321,0,0,1-3.823-1.487,3.8,3.8,0,0,0-1.487-.425c-.552,0-.637-1.826-.637-14.4v-14.4l-2.124-.552c-2.081-.552-2.124-.595-2.124-2.166,0-1.359.934-3.058,6.2-11.086,3.4-5.182,7.646-11.681,9.472-14.442l3.228-5.012,1.911.255C49.922-345.715,51.749-345.461,52.9-345.248Z"
                  transform="translate(-1.5 387.52)" class="svgcolor" fill="#fff"/>

            <path id="Path_13" data-name="Path 13"
                  d="M158.15-272.628c-1.019.637-1.657,1.274-1.487,1.4a12.412,12.412,0,0,0,2.464.51c4.545.552,4.078-.255,4.035,7.561,0,3.78-.042,7.051,0,7.306,0,.212.255-.042.552-.637,1.572-2.931,3.4-6.2,3.738-6.584a18.96,18.96,0,0,0,.382-4.97c0-4.417-.042-4.587-.934-4.757-.552-.085-2-.382-3.228-.637C160.613-274.072,160.231-274.03,158.15-272.628Z"
                  transform="translate(-90.741 322.121)" class="svgcolor" fill="#fff"/>

            <path id="Path_14" data-name="Path 14"
                  d="M148.531-264.1c-.467.552-1.7,2.8-4.29,7.561-1.487,2.761-2.549,4.672-4.587,8.368-.637,1.062-1.742,3.143-2.506,4.545-.765,1.444-2.039,3.823-2.931,5.267a18.28,18.28,0,0,0-1.529,3.058,1.531,1.531,0,0,1-.552.765c-.595.51-1.614.34-6.669-1.189-1.529-.467-5.352-1.614-8.5-2.549s-6.329-1.911-7.051-2.124c-1.911-.637-1.911-.595-1.784,1.359.127,1.784.17,1.826,2.124,2.251a7.912,7.912,0,0,1,2.294.722,1.99,1.99,0,0,0,1.274.34c.552,0,1.1.17,1.232.425a1.347,1.347,0,0,0,1.019.425,35.112,35.112,0,0,1,6.2,1.7,41.6,41.6,0,0,0,5.989,1.7,3.677,3.677,0,0,1,1.359.382,13.91,13.91,0,0,0,4.078,1.232,22.862,22.862,0,0,0,1.274-2.251l1.1-2.124v15.631c0,12.191.127,15.589.552,15.589a35.393,35.393,0,0,0,5.182-1.742c.255-.127,1.232-.467,2.251-.807l1.784-.552v-11.426c0-8.75.127-11.468.552-11.553.255-.127,1.657-.51,3.058-.892s2.931-.892,3.4-1.062c2.549-1.019,2.336-1.869,2.336,10.237,0,8.92.127,11.086.595,11.256a13.608,13.608,0,0,0,4.035-.934l3.441-1.147v-39.205l-5.224-5.1C149-264.742,149-264.7,148.531-264.1Z"
                  transform="translate(-62.815 316.655)" class="svgcolor" fill="#fff"/>
        </g>
    </g>
</svg>
